<?xml version="1.0" encoding="utf-8"?>
<!-- Generator: Adobe Illustrator 21.1.0, SVG Export Plug-In . SVG Version: 6.00 Build 0)  -->
<svg version="1.1" id="レイヤー_1" xmlns="http://www.w3.org/2000/svg" xmlns:xlink="http://www.w3.org/1999/xlink" x="0px"
	 y="0px" viewBox="0 0 128.5 132.2" style="enable-background:new 0 0 128.5 132.2;" xml:space="preserve">
<style type="text/css">
	.st0{fill:#FFFFFF;}
	.st1{fill:none;stroke:#3613C1;stroke-width:8.9432;stroke-miterlimit:10;}
	.st2{fill:none;stroke:#3613C1;stroke-width:2.2358;stroke-miterlimit:10;}
	.st3{fill:#3613C1;}
	.st4{fill:none;stroke:#3613C1;stroke-width:6.7074;stroke-miterlimit:10;}
	.st5{fill:#000002;}
</style>
<path class="st0" d="M226.4,106.6c0,7.9-6.4,14.3-14.3,14.3c-7.9,0-14.3-6.4-14.3-14.3c0-7.9,6.4-14.3,14.3-14.3
	C220,92.3,226.4,98.7,226.4,106.6"/>
<path class="st1" d="M226.4,106.6c0,7.9-6.4,14.3-14.3,14.3c-7.9,0-14.3-6.4-14.3-14.3c0-7.9,6.4-14.3,14.3-14.3
	C220,92.3,226.4,98.7,226.4,106.6z"/>
<path class="st0" d="M213.7,103.9h-3c-2.2,0-4.1-1.8-4.1-4.1V59.6c0-2.2,1.8-4.1,4.1-4.1h3c2.2,0,4.1,1.8,4.1,4.1v40.2
	C217.7,102.1,215.9,103.9,213.7,103.9"/>
<path class="st2" d="M213.7,103.9h-3c-2.2,0-4.1-1.8-4.1-4.1V59.6c0-2.2,1.8-4.1,4.1-4.1h3c2.2,0,4.1,1.8,4.1,4.1v40.2
	C217.7,102.1,215.9,103.9,213.7,103.9z"/>
<path class="st3" d="M217.8,94.3v-8.5l-11.2-9.9v18.3c-5.2,2.2-8.8,7.3-8.8,13.2c0,7.9,6.4,14.3,14.3,14.3c7.9,0,14.3-6.4,14.3-14.3
	C226.5,101.5,222.9,96.4,217.8,94.3"/>
<path class="st2" d="M217.8,94.3v-8.5l-11.2-9.9v18.3c-5.2,2.2-8.8,7.3-8.8,13.2c0,7.9,6.4,14.3,14.3,14.3c7.9,0,14.3-6.4,14.3-14.3
	C226.5,101.5,222.9,96.4,217.8,94.3z"/>
<path class="st3" d="M181.7,102.9c0,9.4-8.1,17-18.1,17c-10,0-18.1-7.6-18.1-17c0-9.4,16.4-40.1,16.4-40.1S181.7,93.5,181.7,102.9"
	/>
<path class="st4" d="M21.2,171.8h10.7c-0.1-5.2-0.2-10.4-0.2-15.6c5.6,12.4,11.1,24.8,16.6,37.2c2.1-10.8,4.3-21.6,6.4-32.3
	c1.8,5.9,3.6,11.9,5.5,17.8c1.9-4.7,3.8-9.5,5.8-14.2c1.7,4.7,3.3,9.4,5,14.1c1.4-3.5,2.8-7,4.1-10.5c0.8,2.8,2.4,5.6,3.2,8.4h12.5"
	/>
<path class="st5" d="M-65.8,86.7h-49c-1.6,0-2.8-1.3-2.8-2.8V71.4c0-1.6,1.3-2.8,2.8-2.8h49c1.6,0,2.8,1.3,2.8,2.8v12.4
	C-63,85.4-64.3,86.7-65.8,86.7z"/>
<path class="st5" d="M-40.1,86.7h-11.6c-1.6,0-2.8-1.3-2.8-2.8V71.4c0-1.6,1.3-2.8,2.8-2.8h11.6c1.6,0,2.8,1.3,2.8,2.8v12.4
	C-37.3,85.4-38.6,86.7-40.1,86.7z"/>
<g>
	<g>
		<path d="M-40.6,61.8c-2.2-3.1-3.8-6-3.3-10c0.3-2.6,1.8-5,2.4-7.5c1-4.2,0.8-8.3-0.4-12.5c-0.4-1.6-2.9-0.9-2.5,0.7
			c1,3.7,1.2,7.3,0.4,11.1c-0.7,2.8-2.1,5.5-2.5,8.4c-0.7,4.4,1.2,7.7,3.7,11.2C-41.9,64.4-39.7,63.1-40.6,61.8L-40.6,61.8z"/>
	</g>
</g>
<g>
	<g>
		<path d="M-48.3,61.8c-2.2-3.1-3.8-6-3.3-10c0.3-2.6,1.8-5,2.4-7.5c1-4.2,0.8-8.3-0.4-12.5c-0.4-1.6-2.9-0.9-2.5,0.7
			c1,3.7,1.2,7.3,0.4,11.1c-0.7,2.8-2.1,5.5-2.5,8.4c-0.7,4.4,1.2,7.7,3.7,11.2C-49.6,64.4-47.3,63.1-48.3,61.8L-48.3,61.8z"/>
	</g>
</g>
<g>
	<g>
		<path class="st5" d="M75.2,87.6H24c-1.6,0-2.8-1.3-2.8-2.8V71.6c0-1.6,1.3-2.8,2.8-2.8h51.2c1.6,0,2.8,1.3,2.8,2.8v13.2
			C78,86.4,76.7,87.6,75.2,87.6z"/>
		<path class="st5" d="M101.9,87.6H89.6c-1.6,0-2.8-1.3-2.8-2.8V71.6c0-1.6,1.3-2.8,2.8-2.8h12.3c1.6,0,2.8,1.3,2.8,2.8v13.2
			C104.7,86.4,103.5,87.6,101.9,87.6z"/>
		<g>
			<g>
				<path d="M101.3,61.7c-1.8-2.6-3.8-5.4-3.6-8.8c0.1-3,1.7-5.7,2.5-8.5c1.3-4.6,1.1-9.3-0.1-13.9c-0.5-1.7-3.1-1-2.6,0.7
					c1.1,3.9,1.3,7.7,0.4,11.6c-0.7,2.8-2.1,5.4-2.6,8.2c-0.8,4.7,1.2,8.3,3.8,12C99.9,64.5,102.3,63.2,101.3,61.7L101.3,61.7z"/>
			</g>
		</g>
		<g>
			<g>
				<path d="M93.3,61.7c-1.8-2.6-3.8-5.4-3.6-8.8c0.1-3,1.7-5.7,2.5-8.5c1.3-4.6,1.1-9.3-0.1-13.9c-0.5-1.7-3.1-1-2.6,0.7
					c1.1,3.9,1.3,7.7,0.4,11.6c-0.7,2.8-2.1,5.4-2.6,8.2c-0.8,4.7,1.2,8.3,3.8,12C92,64.5,94.3,63.2,93.3,61.7L93.3,61.7z"/>
			</g>
		</g>
	</g>
	<rect x="56.2" y="10.1" transform="matrix(-0.7071 0.7071 -0.7071 -0.7071 151.7318 66.3203)" width="11.8" height="108.9"/>
	<path d="M63.9,2.5C29.7,2.5,1.9,31.2,1.9,66.7c0,35.5,27.8,64.2,62.1,64.2c34.3,0,62.1-28.8,62.1-64.2C126,31.2,98.2,2.5,63.9,2.5z
		 M63.9,118c-28.3,0-51.3-23-51.3-51.3s23-51.3,51.3-51.3s51.3,23,51.3,51.3S92.3,118,63.9,118z"/>
</g>
</svg>
