<?xml version="1.0" encoding="utf-8"?>
<!-- Generator: Adobe Illustrator 21.1.0, SVG Export Plug-In . SVG Version: 6.00 Build 0)  -->
<svg version="1.1" id="レイヤー_1" xmlns="http://www.w3.org/2000/svg" xmlns:xlink="http://www.w3.org/1999/xlink" x="0px"
	 y="0px" viewBox="0 0 38.3 73.3" style="enable-background:new 0 0 38.3 73.3;" xml:space="preserve">
<style type="text/css">
	.st0{fill:#FFFFFF;}
	.st1{fill:none;stroke:#3613C1;stroke-width:8.9432;stroke-miterlimit:10;}
	.st2{fill:none;stroke:#3613C1;stroke-width:2.2358;stroke-miterlimit:10;}
	.st3{fill:#3613C1;}
	.st4{fill:none;stroke:#3613C1;stroke-width:6.7074;stroke-miterlimit:10;}
</style>
<path class="st0" d="M33.3,52.8c0,7.9-6.4,14.3-14.3,14.3c-7.9,0-14.3-6.4-14.3-14.3c0-7.9,6.4-14.3,14.3-14.3
	C26.9,38.4,33.3,44.8,33.3,52.8"/>
<path class="st1" d="M33.3,52.8c0,7.9-6.4,14.3-14.3,14.3c-7.9,0-14.3-6.4-14.3-14.3c0-7.9,6.4-14.3,14.3-14.3
	C26.9,38.4,33.3,44.8,33.3,52.8z"/>
<path class="st0" d="M20.5,50.1h-3c-2.2,0-4.1-1.8-4.1-4.1V5.8c0-2.2,1.8-4.1,4.1-4.1h3c2.2,0,4.1,1.8,4.1,4.1V46
	C24.6,48.3,22.8,50.1,20.5,50.1"/>
<path class="st2" d="M20.5,50.1h-3c-2.2,0-4.1-1.8-4.1-4.1V5.8c0-2.2,1.8-4.1,4.1-4.1h3c2.2,0,4.1,1.8,4.1,4.1V46
	C24.6,48.3,22.8,50.1,20.5,50.1z"/>
<path class="st3" d="M24.6,40.4V32l-11.2-9.9v18.3c-5.2,2.2-8.8,7.3-8.8,13.2c0,7.9,6.4,14.3,14.3,14.3c7.9,0,14.3-6.4,14.3-14.3
	C33.3,47.7,29.8,42.6,24.6,40.4"/>
<path class="st2" d="M24.6,40.4V32l-11.2-9.9v18.3c-5.2,2.2-8.8,7.3-8.8,13.2c0,7.9,6.4,14.3,14.3,14.3c7.9,0,14.3-6.4,14.3-14.3
	C33.3,47.7,29.8,42.6,24.6,40.4z"/>
<path class="st3" d="M333.3,172c0,9.4-8.1,17-18.1,17c-10,0-18.1-7.6-18.1-17c0-9.4,16.4-40.1,16.4-40.1S333.3,162.6,333.3,172"/>
<path class="st2" d="M333.3,172c0,9.4-8.1,17-18.1,17c-10,0-18.1-7.6-18.1-17c0-9.4,16.4-40.1,16.4-40.1S333.3,162.6,333.3,172z"/>
<path class="st4" d="M283.3,285.6H294c-0.1-5.2-0.2-10.4-0.2-15.6c5.6,12.4,11.1,24.8,16.6,37.2c2.1-10.8,4.3-21.6,6.4-32.3
	c1.8,5.9,3.6,11.9,5.5,17.8c1.9-4.7,3.8-9.5,5.8-14.2c1.7,4.7,3.3,9.4,5,14.1c1.4-3.5,2.8-7,4.1-10.5c0.8,2.8,2.4,5.6,3.2,8.4h12.5"
	/>
</svg>
