<?xml version="1.0" encoding="utf-8"?>
<!-- Generator: Adobe Illustrator 21.1.0, SVG Export Plug-In . SVG Version: 6.00 Build 0)  -->
<svg version="1.1" id="レイヤー_1" xmlns="http://www.w3.org/2000/svg" xmlns:xlink="http://www.w3.org/1999/xlink" x="0px"
	 y="0px" viewBox="0 0 39.8 61.4" style="enable-background:new 0 0 39.8 61.4;" xml:space="preserve">
<style type="text/css">
	.st0{fill:#FFFFFF;}
	.st1{fill:none;stroke:#3613C1;stroke-width:8.9432;stroke-miterlimit:10;}
	.st2{fill:none;stroke:#3613C1;stroke-width:2.2358;stroke-miterlimit:10;}
	.st3{fill:#3613C1;}
	.st4{fill:none;stroke:#3613C1;stroke-width:6.7074;stroke-miterlimit:10;}
</style>
<path class="st0" d="M237,8.7c0,7.9-6.4,14.3-14.3,14.3c-7.9,0-14.3-6.4-14.3-14.3c0-7.9,6.4-14.3,14.3-14.3
	C230.6-5.7,237,0.8,237,8.7"/>
<path class="st1" d="M237,8.7c0,7.9-6.4,14.3-14.3,14.3c-7.9,0-14.3-6.4-14.3-14.3c0-7.9,6.4-14.3,14.3-14.3
	C230.6-5.7,237,0.8,237,8.7z"/>
<path class="st0" d="M224.2,6h-3c-2.2,0-4.1-1.8-4.1-4.1v-40.2c0-2.2,1.8-4.1,4.1-4.1h3c2.2,0,4.1,1.8,4.1,4.1V1.9
	C228.3,4.2,226.5,6,224.2,6"/>
<path class="st2" d="M224.2,6h-3c-2.2,0-4.1-1.8-4.1-4.1v-40.2c0-2.2,1.8-4.1,4.1-4.1h3c2.2,0,4.1,1.8,4.1,4.1V1.9
	C228.3,4.2,226.5,6,224.2,6z"/>
<path class="st3" d="M228.4-3.7v-8.5L217.2-22v18.3c-5.2,2.2-8.8,7.3-8.8,13.2c0,7.9,6.4,14.3,14.3,14.3c7.9,0,14.3-6.4,14.3-14.3
	C237,3.6,233.5-1.5,228.4-3.7"/>
<path class="st2" d="M228.4-3.7v-8.5L217.2-22v18.3c-5.2,2.2-8.8,7.3-8.8,13.2c0,7.9,6.4,14.3,14.3,14.3c7.9,0,14.3-6.4,14.3-14.3
	C237,3.6,233.5-1.5,228.4-3.7z"/>
<path class="st3" d="M37.8,42.5c0,9.4-8.1,17-18.1,17c-10,0-18.1-7.6-18.1-17c0-9.4,16.4-40.1,16.4-40.1S37.8,33.1,37.8,42.5"/>
<path class="st2" d="M37.8,42.5c0,9.4-8.1,17-18.1,17c-10,0-18.1-7.6-18.1-17c0-9.4,16.4-40.1,16.4-40.1S37.8,33.1,37.8,42.5z"/>
<path class="st4" d="M283.8,280.1h10.7c-0.1-5.2-0.2-10.4-0.2-15.6c5.6,12.4,11.1,24.8,16.6,37.2c2.1-10.8,4.3-21.6,6.4-32.3
	c1.8,5.9,3.6,11.9,5.5,17.8c1.9-4.7,3.8-9.5,5.8-14.2c1.7,4.7,3.3,9.4,5,14.1c1.4-3.5,2.8-7,4.1-10.5c0.8,2.8,2.4,5.6,3.2,8.4h12.5"
	/>
</svg>
