<?xml version="1.0" encoding="utf-8"?>
<!-- Generator: Adobe Illustrator 21.1.0, SVG Export Plug-In . SVG Version: 6.00 Build 0)  -->
<svg version="1.1" id="レイヤー_1" xmlns="http://www.w3.org/2000/svg" xmlns:xlink="http://www.w3.org/1999/xlink" x="0px"
	 y="0px" viewBox="0 0 83.8 57.7" style="enable-background:new 0 0 83.8 57.7;" xml:space="preserve">
<style type="text/css">
	.st0{fill:#FFFFFF;}
	.st1{fill:none;stroke:#3613C1;stroke-width:8.9432;stroke-miterlimit:10;}
	.st2{fill:none;stroke:#3613C1;stroke-width:2.2358;stroke-miterlimit:10;}
	.st3{fill:#3613C1;}
	.st4{fill:none;stroke:#3613C1;stroke-width:6.7074;stroke-miterlimit:10;}
	.st5{fill:#000002;}
</style>
<path class="st0" d="M207.2,76.8c0,7.9-6.4,14.3-14.3,14.3c-7.9,0-14.3-6.4-14.3-14.3c0-7.9,6.4-14.3,14.3-14.3
	C200.8,62.5,207.2,68.9,207.2,76.8"/>
<path class="st1" d="M207.2,76.8c0,7.9-6.4,14.3-14.3,14.3c-7.9,0-14.3-6.4-14.3-14.3c0-7.9,6.4-14.3,14.3-14.3
	C200.8,62.5,207.2,68.9,207.2,76.8z"/>
<path class="st0" d="M194.4,74.1h-3c-2.2,0-4.1-1.8-4.1-4.1V29.8c0-2.2,1.8-4.1,4.1-4.1h3c2.2,0,4.1,1.8,4.1,4.1V70
	C198.5,72.3,196.7,74.1,194.4,74.1"/>
<path class="st2" d="M194.4,74.1h-3c-2.2,0-4.1-1.8-4.1-4.1V29.8c0-2.2,1.8-4.1,4.1-4.1h3c2.2,0,4.1,1.8,4.1,4.1V70
	C198.5,72.3,196.7,74.1,194.4,74.1z"/>
<path class="st3" d="M198.5,64.4V56l-11.2-9.9v18.3c-5.2,2.2-8.8,7.3-8.8,13.2c0,7.9,6.4,14.3,14.3,14.3c7.9,0,14.3-6.4,14.3-14.3
	C207.2,71.7,203.6,66.6,198.5,64.4"/>
<path class="st2" d="M198.5,64.4V56l-11.2-9.9v18.3c-5.2,2.2-8.8,7.3-8.8,13.2c0,7.9,6.4,14.3,14.3,14.3c7.9,0,14.3-6.4,14.3-14.3
	C207.2,71.7,203.6,66.6,198.5,64.4z"/>
<path class="st3" d="M162.5,73.1c0,9.4-8.1,17-18.1,17c-10,0-18.1-7.6-18.1-17c0-9.4,16.4-40.1,16.4-40.1S162.5,63.7,162.5,73.1"/>
<path class="st4" d="M2,142h10.7c-0.1-5.2-0.2-10.4-0.2-15.6c5.6,12.4,11.1,24.8,16.6,37.2c2.1-10.8,4.3-21.6,6.4-32.3
	c1.8,5.9,3.6,11.9,5.5,17.8c1.9-4.7,3.8-9.5,5.8-14.2c1.7,4.7,3.3,9.4,5,14.1c1.4-3.5,2.8-7,4.1-10.5c0.8,2.8,2.4,5.6,3.2,8.4h12.5"
	/>
<path class="st5" d="M53.7,56.9h-49c-1.6,0-2.8-1.3-2.8-2.8V41.6c0-1.6,1.3-2.8,2.8-2.8h49c1.6,0,2.8,1.3,2.8,2.8V54
	C56.5,55.6,55.2,56.9,53.7,56.9z"/>
<path class="st5" d="M79.4,56.9H67.8c-1.6,0-2.8-1.3-2.8-2.8V41.6c0-1.6,1.3-2.8,2.8-2.8h11.6c1.6,0,2.8,1.3,2.8,2.8V54
	C82.2,55.6,80.9,56.9,79.4,56.9z"/>
<g>
	<g>
		<path d="M78.9,32c-2.2-3.1-3.8-6-3.3-10c0.3-2.6,1.8-5,2.4-7.5c1-4.2,0.8-8.3-0.4-12.5c-0.4-1.6-2.9-0.9-2.5,0.7
			c1,3.7,1.2,7.3,0.4,11.1c-0.7,2.8-2.1,5.5-2.5,8.4c-0.7,4.4,1.2,7.7,3.7,11.2C77.6,34.6,79.8,33.3,78.9,32L78.9,32z"/>
	</g>
</g>
<g>
	<g>
		<path d="M71.2,32c-2.2-3.1-3.8-6-3.3-10c0.3-2.6,1.8-5,2.4-7.5c1-4.2,0.8-8.3-0.4-12.5C69.5,0.4,67,1,67.5,2.6
			c1,3.7,1.2,7.3,0.4,11.1c-0.7,2.8-2.1,5.5-2.5,8.4c-0.7,4.4,1.2,7.7,3.7,11.2C69.9,34.6,72.2,33.3,71.2,32L71.2,32z"/>
	</g>
</g>
</svg>
