<?xml version="1.0" encoding="utf-8"?>
<!-- Generator: Adobe Illustrator 21.1.0, SVG Export Plug-In . SVG Version: 6.00 Build 0)  -->
<svg version="1.1" id="レイヤー_1" xmlns="http://www.w3.org/2000/svg" xmlns:xlink="http://www.w3.org/1999/xlink" x="0px"
	 y="0px" viewBox="0 0 78 66" style="enable-background:new 0 0 78 66;" xml:space="preserve">
<style type="text/css">
	.st0{fill:#FFFFFF;}
	.st1{fill:none;stroke:#3613C1;stroke-width:8.9432;stroke-miterlimit:10;}
	.st2{fill:none;stroke:#3613C1;stroke-width:2.2358;stroke-miterlimit:10;}
	.st3{fill:#3613C1;}
	.st4{fill:none;stroke:#3613C1;stroke-width:6.7074;stroke-miterlimit:10;}
</style>
<path class="st0" d="M211.3-31.9c0,7.9-6.4,14.3-14.3,14.3c-7.9,0-14.3-6.4-14.3-14.3c0-7.9,6.4-14.3,14.3-14.3
	C204.8-46.2,211.3-39.8,211.3-31.9"/>
<path class="st1" d="M211.3-31.9c0,7.9-6.4,14.3-14.3,14.3c-7.9,0-14.3-6.4-14.3-14.3c0-7.9,6.4-14.3,14.3-14.3
	C204.8-46.2,211.3-39.8,211.3-31.9z"/>
<path class="st0" d="M198.5-34.5h-3c-2.2,0-4.1-1.8-4.1-4.1v-40.2c0-2.2,1.8-4.1,4.1-4.1h3c2.2,0,4.1,1.8,4.1,4.1v40.2
	C202.6-36.4,200.7-34.5,198.5-34.5"/>
<path class="st2" d="M198.5-34.5h-3c-2.2,0-4.1-1.8-4.1-4.1v-40.2c0-2.2,1.8-4.1,4.1-4.1h3c2.2,0,4.1,1.8,4.1,4.1v40.2
	C202.6-36.4,200.7-34.5,198.5-34.5z"/>
<path class="st3" d="M202.6-44.2v-8.5l-11.2-9.9v18.3c-5.2,2.2-8.8,7.3-8.8,13.2c0,7.9,6.4,14.3,14.3,14.3c7.9,0,14.3-6.4,14.3-14.3
	C211.3-36.9,207.7-42,202.6-44.2"/>
<path class="st2" d="M202.6-44.2v-8.5l-11.2-9.9v18.3c-5.2,2.2-8.8,7.3-8.8,13.2c0,7.9,6.4,14.3,14.3,14.3c7.9,0,14.3-6.4,14.3-14.3
	C211.3-36.9,207.7-42,202.6-44.2z"/>
<path class="st3" d="M166.6-35.5c0,9.4-8.1,17-18.1,17c-10,0-18.1-7.6-18.1-17c0-9.4,16.4-40.1,16.4-40.1S166.6-44.9,166.6-35.5"/>
<path class="st4" d="M6.1,33.4h10.7c-0.1-5.2-0.2-10.4-0.2-15.6C22,30.2,27.6,42.6,33.1,55c2.1-10.8,4.3-21.6,6.4-32.3
	c1.8,5.9,3.6,11.9,5.5,17.8c1.9-4.7,3.8-9.5,5.8-14.2c1.7,4.7,3.3,9.4,5,14.1c1.4-3.5,2.8-7,4.1-10.5c0.8,2.8,2.4,5.6,3.2,8.4h12.5"
	/>
</svg>
